<svg data-name="Layer 1" viewBox="0 0 200 200" xmlns="http://www.w3.org/2000/svg"><path d="M160 30H40c-16.5 0-30 14-30 31v78c0 17 13.5 31 30 31h120c16.5 0 30-14 30-31V61c0-17-13.5-31-30-31Zm10 109c0 5.5-4.5 10.5-10 10.5H40A10.15 10.15 0 0 1 30 139V61c0-5.5 4.5-10.5 10-10.5h120A10.15 10.15 0 0 1 170 61v78Zm-32.5-19h-75c-4 0-7.5 4.5-7.5 10s3.5 10 7.5 10h75c4 0 7.5-4.5 7.5-10s-3.5-10-7.5-10Zm-65-20a10 10 0 0 0-10-10H50a10 10 0 0 0 0 20h12.5a10 10 0 0 0 10-10ZM50 80h12.5a10 10 0 0 0 0-20H50a10 10 0 0 0 0 20Zm42.5 30h15a10 10 0 0 0 0-20h-15a10 10 0 0 0 0 20Zm0-30h15a10 10 0 0 0 0-20h-15a10 10 0 0 0 0 20ZM150 90h-12.5a10 10 0 0 0 0 20H150a10 10 0 0 0 0-20Zm0-30h-12.5a10 10 0 0 0 0 20H150a10 10 0 0 0 0-20Z" fill="#0783e8" class="fill-000000"></path></svg>